# xmcd CD database file
#
# Track frame offsets:
#	150
#	17678
#	33038
#
# Disc length: 672 seconds
#
# Revision: 0
# Processed by: cddbd v1.5PL3 Copyright (c) Steve Scherf et al.
# Submitted via: CDex 1.51
#
DISCID=14029e03
DTITLE=星村 麻衣 - ビリーヴァー
DYEAR=2003
DGENRE=Vocal
TTITLE0=ビリーヴァー
TTITLE1=M&M
TTITLE2=ビリーヴァー (Unplugged Version)
EXTD=YEAR: 2003
EXTT0=
EXTT1=
EXTT2=
PLAYORDER=
